<svg width="20" height="20" viewBox="0 0 20 20" fill="none" xmlns="http://www.w3.org/2000/svg">
<path d="M16.25 9.375H10.625V3.75C10.625 3.58424 10.5592 3.42527 10.4419 3.30806C10.3247 3.19085 10.1658 3.125 10 3.125C9.83424 3.125 9.67527 3.19085 9.55806 3.30806C9.44085 3.42527 9.375 3.58424 9.375 3.75V9.375H3.75C3.58424 9.375 3.42527 9.44085 3.30806 9.55806C3.19085 9.67527 3.125 9.83424 3.125 10C3.125 10.1658 3.19085 10.3247 3.30806 10.4419C3.42527 10.5592 3.58424 10.625 3.75 10.625H9.375V16.25C9.375 16.4158 9.44085 16.5747 9.55806 16.6919C9.67527 16.8092 9.83424 16.875 10 16.875C10.1658 16.875 10.3247 16.8092 10.4419 16.6919C10.5592 16.5747 10.625 16.4158 10.625 16.25V10.625H16.25C16.4158 10.625 16.5747 10.5592 16.6919 10.4419C16.8092 10.3247 16.875 10.1658 16.875 10C16.875 9.83424 16.8092 9.67527 16.6919 9.55806C16.5747 9.44085 16.4158 9.375 16.25 9.375Z" fill="white" fill-opacity="0.7"/>
</svg>
