<?xml version="1.0" encoding="utf-8"?>
<!-- Generator: Adobe Illustrator 22.0.1, SVG Export Plug-In . SVG Version: 6.00 Build 0)  -->
<svg version="1.1" id="Layer_1" xmlns="http://www.w3.org/2000/svg" xmlns:xlink="http://www.w3.org/1999/xlink" x="0px" y="0px"
	 viewBox="0 0 40 40" style="enable-background:new 0 0 40 40;" xml:space="preserve">
<g>
	<g>
		<path d="M23.5542,35.0014c-0.375,0-0.7432-0.1465-1.02-0.4238l-8.4692-8.5859H10.5c-1.9297,0-3.5-1.5703-3.5-3.5v-5
			c0-1.9297,1.5703-3.493,3.5-3.493h3.5654l8.4644-8.5734c0.002-0.002,0.0039-0.0029,0.0054-0.0049
			c0.4146-0.4141,1.0327-0.5342,1.5742-0.3115C24.6504,5.3334,25,5.8569,25,6.4428v27.1133c0,0.5869-0.3501,1.1104-0.8916,1.335
			C23.9287,34.9653,23.7407,35.0014,23.5542,35.0014z M10.5,15.9916c-0.8271,0-1.5,0.6729-1.5,1.5v5
			c0,0.8271,0.6729,1.507,1.5,1.507h3.9834c0.2676,0,0.5239,0.1004,0.7119,0.2909L23,32.2016V7.7953l-7.8052,7.8994
			c-0.188,0.1895-0.4443,0.2969-0.7114,0.2969H10.5z"/>
	</g>
	<path d="M29,27.9916c-0.2559,0-0.5117-0.0977-0.707-0.293c-0.3906-0.3906-0.3906-1.0234,0-1.4141
		C30.0386,24.5395,31,22.3051,31,19.9926s-0.9614-4.5479-2.707-6.2939c-0.3906-0.3906-0.3906-1.0234,0-1.4141
		s1.0234-0.3906,1.4141,0c2.1235,2.124,3.293,4.8613,3.293,7.708s-1.1694,5.583-3.293,7.7061
		C29.5117,27.894,29.2559,27.9916,29,27.9916z"/>
</g>
</svg>
