<svg width="48" height="48" viewBox="0 0 48 48" fill="none" xmlns="http://www.w3.org/2000/svg">
<path d="M43.1805 14.585C42.8432 14.3773 42.457 14.2624 42.061 14.2519C41.6651 14.2414 41.2733 14.3356 40.9254 14.525L35.2513 18.1325V14.9995C35.2494 13.2099 34.5376 11.4941 33.2722 10.2287C32.0067 8.96326 30.291 8.25147 28.5013 8.24951H10.5013C8.71173 8.25147 6.99598 8.96325 5.73053 10.2287C4.46508 11.4941 3.7533 13.2099 3.75134 14.9995V32.9995C3.75329 34.7891 4.46508 36.5049 5.73053 37.7703C6.99597 39.0358 8.71173 39.7476 10.5013 39.7495H28.5013C30.291 39.7476 32.0067 39.0358 33.2722 37.7703C34.5376 36.5049 35.2494 34.7891 35.2513 32.9995V29.8658L40.9928 33.5122C41.3358 33.6835 41.7169 33.7643 42.1 33.7469C42.483 33.7296 42.8553 33.6146 43.1814 33.413C43.5075 33.2114 43.7767 32.9297 43.9635 32.5949C44.1502 32.26 44.2483 31.8829 44.2484 31.4995V16.4995C44.25 16.1155 44.1526 15.7376 43.9656 15.4022C43.7785 15.0668 43.5081 14.7854 43.1805 14.585Z" fill="white" fill-opacity="0.95"/>
</svg>
