<svg width="144" height="108" viewBox="0 0 144 108" fill="none" xmlns="http://www.w3.org/2000/svg">
<path fill-rule="evenodd" clip-rule="evenodd" d="M72 95C94.6437 95 113 76.6437 113 54C113 31.3563 94.6437 13 72 13C49.3563 13 31 31.3563 31 54C31 76.6437 49.3563 95 72 95ZM89.5714 54.0002C89.5714 63.7046 81.7045 71.5716 72 71.5716C62.2956 71.5716 54.4286 63.7046 54.4286 54.0002C54.4286 44.2957 62.2956 36.4287 72 36.4287C81.7045 36.4287 89.5714 44.2957 89.5714 54.0002Z" fill="white" fill-opacity="0.11"/>
<path d="M77.5595 80.0656C77.4775 79.9836 77.3662 79.9375 77.2502 79.9375C77.1342 79.9375 77.0229 79.9836 76.9409 80.0656L72 85.0063L67.0593 80.0656C66.9768 79.9856 66.8662 79.9413 66.7514 79.9422C66.6365 79.943 66.5266 79.9891 66.4453 80.0703C66.3641 80.1515 66.3181 80.2615 66.3172 80.3763C66.3163 80.4912 66.3607 80.6018 66.4407 80.6843L71.6907 85.9343C71.7727 86.0163 71.884 86.0624 72 86.0624C72.116 86.0624 72.2273 86.0163 72.3093 85.9343L77.5593 80.6843C77.6414 80.6023 77.6875 80.491 77.6875 80.375C77.6876 80.259 77.6415 80.1477 77.5595 80.0656Z" fill="white" fill-opacity="0.95"/>
<path d="M77.5593 27.3156L72.3093 22.0656C72.2273 21.9836 72.116 21.9375 72 21.9375C71.884 21.9375 71.7727 21.9836 71.6907 22.0656L66.4407 27.3156C66.3992 27.356 66.3662 27.4043 66.3435 27.4576C66.3208 27.5109 66.309 27.5682 66.3086 27.6261C66.3082 27.684 66.3194 27.7414 66.3414 27.795C66.3634 27.8486 66.3958 27.8973 66.4367 27.9382C66.4777 27.9792 66.5264 28.0116 66.58 28.0336C66.6335 28.0556 66.6909 28.0667 66.7489 28.0664C66.8068 28.066 66.8641 28.0541 66.9174 28.0315C66.9706 28.0088 67.0189 27.9758 67.0593 27.9343L72 22.9936L76.9407 27.9343C76.9811 27.9758 77.0294 28.0088 77.0827 28.0315C77.136 28.0541 77.1932 28.066 77.2512 28.0664C77.3091 28.0667 77.3665 28.0556 77.4201 28.0336C77.4737 28.0116 77.5223 27.9792 77.5633 27.9382C77.6043 27.8973 77.6367 27.8486 77.6587 27.795C77.6807 27.7414 77.6918 27.684 77.6914 27.6261C77.6911 27.5682 77.6792 27.5109 77.6565 27.4576C77.6339 27.4043 77.6008 27.356 77.5593 27.3156Z" fill="white" fill-opacity="0.95"/>
<path d="M40.9938 54.0001L45.9345 49.0595C46.0145 48.9771 46.0588 48.8664 46.058 48.7516C46.0571 48.6367 46.0111 48.5268 45.9298 48.4455C45.8486 48.3643 45.7387 48.3183 45.6238 48.3174C45.5089 48.3165 45.3983 48.3609 45.3159 48.4408L40.0659 53.6908C39.9838 53.7729 39.9377 53.8842 39.9377 54.0002C39.9377 54.1162 39.9838 54.2275 40.0659 54.3095L45.3159 59.5595C45.3563 59.6012 45.4045 59.6343 45.4579 59.6572C45.5112 59.68 45.5686 59.6919 45.6266 59.6924C45.6846 59.6928 45.7421 59.6817 45.7958 59.6597C45.8495 59.6377 45.8982 59.6053 45.9392 59.5642C45.9803 59.5232 46.0127 59.4744 46.0347 59.4208C46.0567 59.3671 46.0678 59.3096 46.0674 59.2515C46.0669 59.1935 46.0549 59.1362 46.0321 59.0828C46.0093 59.0295 45.9761 58.9812 45.9345 58.9408L40.9938 54.0001Z" fill="white" fill-opacity="0.95"/>
<path d="M103.934 53.6905L98.6844 48.4405C98.644 48.3988 98.5957 48.3657 98.5424 48.3428C98.489 48.32 98.4317 48.3081 98.3737 48.3076C98.3157 48.3072 98.2581 48.3183 98.2045 48.3403C98.1508 48.3623 98.102 48.3947 98.061 48.4358C98.02 48.4768 97.9875 48.5256 97.9655 48.5792C97.9435 48.6329 97.9324 48.6904 97.9329 48.7485C97.9333 48.8065 97.9453 48.8638 97.9681 48.9172C97.9909 48.9705 98.0241 49.0188 98.0658 49.0592L103.006 53.9997L98.0658 58.9405C98.0241 58.9809 97.9909 59.0291 97.9681 59.0825C97.9453 59.1358 97.9333 59.1932 97.9329 59.2512C97.9324 59.3092 97.9435 59.3667 97.9655 59.4204C97.9875 59.4741 98.02 59.5229 98.061 59.5639C98.102 59.6049 98.1508 59.6374 98.2045 59.6594C98.2581 59.6813 98.3157 59.6925 98.3737 59.692C98.4317 59.6916 98.489 59.6796 98.5424 59.6568C98.5957 59.634 98.644 59.6008 98.6844 59.5592L103.934 54.3092C104.016 54.2271 104.062 54.1158 104.062 53.9998C104.062 53.8838 104.016 53.7725 103.934 53.6905Z" fill="white" fill-opacity="0.95"/>
</svg>
