<?xml version="1.0" encoding="utf-8"?>
<!-- Generator: Adobe Illustrator 22.0.1, SVG Export Plug-In . SVG Version: 6.00 Build 0)  -->
<svg version="1.1" id="Layer_1" xmlns="http://www.w3.org/2000/svg" xmlns:xlink="http://www.w3.org/1999/xlink" x="0px" y="0px"
	 viewBox="0 0 40 40" style="enable-background:new 0 0 40 40;" xml:space="preserve">
<g>
	<path d="M35,30H5c-0.5527,0-1-0.4473-1-1s0.4473-1,1-1h30c0.5527,0,1,0.4473,1,1S35.5527,30,35,30z"/>
	<path d="M35,25H5c-0.4072,0-0.7734-0.2471-0.9268-0.624s-0.0625-0.8096,0.2305-1.0938l12.3096-11.957
		c1.9414-1.7627,4.832-1.7637,6.75-0.0225l12.333,11.9795c0.293,0.2842,0.3838,0.7168,0.2305,1.0938S35.4072,25,35,25z M7.4648,23
		h25.0703l-10.541-10.2393c-1.1279-1.0234-2.8623-1.0244-4.0117,0.0225L7.4648,23z"/>
</g>
</svg>
