<?xml version="1.0" encoding="utf-8"?>
<!-- Generator: Adobe Illustrator 22.0.1, SVG Export Plug-In . SVG Version: 6.00 Build 0)  -->
<svg version="1.1" id="Layer_1" xmlns="http://www.w3.org/2000/svg" xmlns:xlink="http://www.w3.org/1999/xlink" x="0px" y="0px"
	 viewBox="0 0 40 40" style="enable-background:new 0 0 40 40;" xml:space="preserve">
<path d="M21.4141,20L32.707,8.707c0.3906-0.3906,0.3906-1.0234,0-1.4141s-1.0234-0.3906-1.4141,0L20,18.5859L8.707,7.293
	c-0.3906-0.3906-1.0234-0.3906-1.4141,0s-0.3906,1.0234,0,1.4141L18.5859,20L7.293,31.293c-0.3906,0.3906-0.3906,1.0234,0,1.4141
	C7.4883,32.9023,7.7441,33,8,33c0.2559,0,0.5117-0.0977,0.707-0.293L20,21.4141l11.293,11.293C31.4883,32.9023,31.7441,33,32,33
	c0.2559,0,0.5117-0.0977,0.707-0.293c0.3906-0.3906,0.3906-1.0234,0-1.4141L21.4141,20z"/>
</svg>
