<?xml version="1.0" encoding="utf-8"?>
<!-- Generator: Adobe Illustrator 22.0.1, SVG Export Plug-In . SVG Version: 6.00 Build 0)  -->
<svg version="1.1" id="Layer_1" xmlns="http://www.w3.org/2000/svg" xmlns:xlink="http://www.w3.org/1999/xlink" x="0px" y="0px"
	 viewBox="0 0 40 40" style="enable-background:new 0 0 40 40;" xml:space="preserve">
<path d="M34.5186,8.4354c-0.9268-0.5557-2.0508-0.584-3.0508-0.0508L25,12.2744v-1.2219c0-1.082-0.5537-2.0605-1.4814-2.6172
	c-0.9268-0.5557-2.0508-0.584-3.0508-0.0508L5.6152,17.3172C4.6191,17.8495,4,18.8807,4,20.0106
	c0,1.1289,0.6191,2.1602,1.5713,2.667l14.9414,8.959c0.4541,0.2412,0.9463,0.3623,1.4375,0.3623c0.541,0,1.082-0.1465,1.5684-0.4385
	C24.4463,31.0037,25,30.0252,25,28.9432v-1.2117l6.5127,3.9051c0.4541,0.2412,0.9463,0.3623,1.4375,0.3623
	c0.541,0,1.082-0.1465,1.5684-0.4385C35.4463,31.0037,36,30.0252,36,28.9432V11.0526C36,9.9705,35.4463,8.992,34.5186,8.4354z
	 M23,28.9432c0,0.5371-0.3574,0.8096-0.5107,0.9023c-0.1543,0.0918-0.5625,0.2754-0.9912,0.0508l-14.9414-8.959
	C6.208,20.7518,6,20.4051,6,20.0106c0-0.3955,0.208-0.7422,0.6016-0.9531l14.8525-8.9326c0.4746-0.2529,0.8818-0.0664,1.0352,0.0254
	C22.6426,10.243,23,10.5155,23,11.0526v2.4247l-6.3848,3.8399C15.6191,17.8495,15,18.8807,15,20.0106
	c0,1.1289,0.6191,2.1602,1.5713,2.667L23,26.5323V28.9432z M34,28.9432c0,0.5371-0.3574,0.8096-0.5107,0.9023
	c-0.1543,0.0918-0.5635,0.2754-0.9912,0.0508l-14.9414-8.959C17.208,20.7518,17,20.4051,17,20.0106
	c0-0.3955,0.208-0.7422,0.6016-0.9531l14.8525-8.9326c0.1758-0.0938,0.3428-0.1279,0.4902-0.1279
	c0.251,0,0.4482,0.0957,0.5449,0.1533C33.6426,10.243,34,10.5155,34,11.0526V28.9432z"/>
</svg>
