<?xml version="1.0" encoding="utf-8"?>
<!-- Generator: Adobe Illustrator 22.0.1, SVG Export Plug-In . SVG Version: 6.00 Build 0)  -->
<svg version="1.1" id="Layer_1" xmlns="http://www.w3.org/2000/svg" xmlns:xlink="http://www.w3.org/1999/xlink" x="0px" y="0px"
	 viewBox="0 0 40 40" style="enable-background:new 0 0 40 40;" xml:space="preserve">
<path d="M5.4814,31.5646c0.9268,0.5557,2.0508,0.584,3.0508,0.0508L15,27.7256v1.2219c0,1.082,0.5537,2.0605,1.4814,2.6172
	c0.9268,0.5557,2.0508,0.584,3.0508,0.0508l14.8525-8.9326C35.3809,22.1505,36,21.1193,36,19.9894
	c0-1.1289-0.6191-2.1602-1.5713-2.667l-14.9414-8.959c-0.4541-0.2412-0.9463-0.3623-1.4375-0.3623
	c-0.541,0-1.082,0.1465-1.5684,0.4385C15.5537,8.9963,15,9.9748,15,11.0568v1.2117L8.4873,8.3634
	C8.0332,8.1222,7.541,8.0011,7.0498,8.0011c-0.541,0-1.082,0.1465-1.5684,0.4385C4.5537,8.9963,4,9.9748,4,11.0568v17.8906
	C4,30.0295,4.5537,31.008,5.4814,31.5646z M17,11.0568c0-0.5371,0.3574-0.8096,0.5107-0.9023
	c0.1543-0.0918,0.5625-0.2754,0.9912-0.0508l14.9414,8.959C33.792,19.2482,34,19.5949,34,19.9894
	c0,0.3955-0.208,0.7422-0.6016,0.9531l-14.8525,8.9326c-0.4746,0.2529-0.8818,0.0664-1.0352-0.0254
	C17.3574,29.757,17,29.4845,17,28.9474v-2.4247l6.3848-3.8399C24.3809,22.1505,25,21.1193,25,19.9894
	c0-1.1289-0.6191-2.1602-1.5713-2.667L17,13.4677V11.0568z M6,11.0568c0-0.5371,0.3574-0.8096,0.5107-0.9023
	c0.1543-0.0918,0.5635-0.2754,0.9912-0.0508l14.9414,8.959C22.792,19.2482,23,19.5949,23,19.9894
	c0,0.3955-0.208,0.7422-0.6016,0.9531L7.5459,29.8752c-0.1758,0.0938-0.3428,0.1279-0.4902,0.1279
	c-0.251,0-0.4482-0.0957-0.5449-0.1533C6.3574,29.757,6,29.4845,6,28.9474V11.0568z"/>
</svg>
