<?xml version="1.0" encoding="utf-8"?>
<!-- Generator: Adobe Illustrator 22.0.1, SVG Export Plug-In . SVG Version: 6.00 Build 0)  -->
<svg version="1.1" id="Layer_1" xmlns="http://www.w3.org/2000/svg" xmlns:xlink="http://www.w3.org/1999/xlink" x="0px" y="0px"
	 viewBox="0 0 40 40" style="enable-background:new 0 0 40 40;" xml:space="preserve">
<path d="M31.9678,15.0596c-0.0049-0.0049-0.0098-0.0098-0.0156-0.0156L21.3359,4.5352c-0.7148-0.7148-1.9609-0.7109-2.668-0.0039
	L8.0322,15.0596C7.3662,15.748,7,16.6533,7,17.6094v14.8909c0,1.9297,1.5703,3.5,3.5,3.5h19c1.9297,0,3.5-1.5703,3.5-3.5V17.6094
	C33,16.6533,32.6338,15.748,31.9678,15.0596z M23,34.0003h-6v-12h6V34.0003z M31,32.5003c0,0.8271-0.6729,1.5-1.5,1.5H25v-13
	c0-0.5527-0.4473-1-1-1h-8c-0.5527,0-1,0.4473-1,1v13h-4.5c-0.8271,0-1.5-0.6729-1.5-1.5V17.6094
	c0-0.4346,0.167-0.8457,0.4541-1.1436L20,6.0264L30.5371,16.457C30.8359,16.7695,31,17.1787,31,17.6094V32.5003z"/>
</svg>
