<svg width="144" height="108" viewBox="0 0 144 108" fill="none" xmlns="http://www.w3.org/2000/svg">
<path d="M79.5 53.25H72.75V46.5C72.75 46.3011 72.671 46.1103 72.5303 45.9697C72.3897 45.829 72.1989 45.75 72 45.75C71.8011 45.75 71.6103 45.829 71.4697 45.9697C71.329 46.1103 71.25 46.3011 71.25 46.5V53.25H64.5C64.3011 53.25 64.1103 53.329 63.9697 53.4697C63.829 53.6103 63.75 53.8011 63.75 54C63.75 54.1989 63.829 54.3897 63.9697 54.5303C64.1103 54.671 64.3011 54.75 64.5 54.75H71.25V61.5C71.25 61.6989 71.329 61.8897 71.4697 62.0303C71.6103 62.171 71.8011 62.25 72 62.25C72.1989 62.25 72.3897 62.171 72.5303 62.0303C72.671 61.8897 72.75 61.6989 72.75 61.5V54.75H79.5C79.6989 54.75 79.8897 54.671 80.0303 54.5303C80.171 54.3897 80.25 54.1989 80.25 54C80.25 53.8011 80.171 53.6103 80.0303 53.4697C79.8897 53.329 79.6989 53.25 79.5 53.25Z" fill="white" fill-opacity="0.95"/>
<rect x="49" y="31" width="46" height="46" rx="23" stroke="white" stroke-opacity="0.3" stroke-width="2"/>
</svg>
