<?xml version="1.0" encoding="utf-8"?>
<!-- Generator: Adobe Illustrator 22.0.1, SVG Export Plug-In . SVG Version: 6.00 Build 0)  -->
<svg version="1.1" id="Layer_1" xmlns="http://www.w3.org/2000/svg" xmlns:xlink="http://www.w3.org/1999/xlink" x="0px" y="0px"
	 viewBox="0 0 40 40" style="enable-background:new 0 0 40 40;" xml:space="preserve">
<g>
	<path d="M33,31H7c-0.5527,0-1-0.4473-1-1s0.4473-1,1-1h26c0.5527,0,1,0.4473,1,1S33.5527,31,33,31z"/>
	<path d="M33,11H7c-0.5527,0-1-0.4473-1-1s0.4473-1,1-1h26c0.5527,0,1,0.4473,1,1S33.5527,11,33,11z"/>
	<path d="M33,21H7c-0.5527,0-1-0.4473-1-1s0.4473-1,1-1h26c0.5527,0,1,0.4473,1,1S33.5527,21,33,21z"/>
</g>
</svg>
