<?xml version="1.0" encoding="utf-8"?>
<!-- Generator: Adobe Illustrator 22.0.1, SVG Export Plug-In . SVG Version: 6.00 Build 0)  -->
<svg version="1.1" id="Layer_1" xmlns="http://www.w3.org/2000/svg" xmlns:xlink="http://www.w3.org/1999/xlink" x="0px" y="0px"
	 viewBox="0 0 40 40" style="enable-background:new 0 0 40 40;" xml:space="preserve">
<path d="M27,25V11c0-3.8594-3.1406-7-7-7s-7,3.1406-7,7v14c0,3.519,2.6138,6.4321,6,6.9201V34h-3c-0.5527,0-1,0.4473-1,1
	s0.4473,1,1,1h8c0.5527,0,1-0.4473,1-1s-0.4473-1-1-1h-3v-2.0799C24.3862,31.4321,27,28.519,27,25z M15,25V11c0-2.7568,2.2432-5,5-5
	s5,2.2432,5,5v14c0,2.7568-2.2432,5-5,5S15,27.7568,15,25z"/>
</svg>
