<?xml version="1.0" encoding="utf-8"?>
<!-- Generator: Adobe Illustrator 22.0.1, SVG Export Plug-In . SVG Version: 6.00 Build 0)  -->
<svg version="1.1" id="Layer_1" xmlns="http://www.w3.org/2000/svg" xmlns:xlink="http://www.w3.org/1999/xlink" x="0px" y="0px"
	 viewBox="0 0 40 40" style="enable-background:new 0 0 40 40;" xml:space="preserve">
<path d="M32.707,5.293c-0.3906-0.3906-1.0234-0.3906-1.4141,0l-4.4172,4.4172C26.2681,6.4654,23.4183,4,20,4c-3.8594,0-7,3.1406-7,7
	v12.5859l-5.707,5.707c-0.3906,0.3906-0.3906,1.0234,0,1.4141C7.4883,30.9023,7.7441,31,8,31c0.2559,0,0.5117-0.0977,0.707-0.293
	l4.4172-4.4172c0.5472,2.9216,2.9139,5.2035,5.8757,5.6303V34h-3c-0.5527,0-1,0.4473-1,1s0.4473,1,1,1h8c0.5527,0,1-0.4473,1-1
	s-0.4473-1-1-1h-3v-2.0799c3.3862-0.488,6-3.4011,6-6.9201V12.4141l5.707-5.707C33.0977,6.3164,33.0977,5.6836,32.707,5.293z M15,11
	c0-2.7568,2.2432-5,5-5s5,2.2432,5,5v0.5859l-10,10V11z M25,25c0,2.7568-2.2432,5-5,5s-5-2.2432-5-5v-0.5859l10-10V25z"/>
</svg>
