<?xml version="1.0" encoding="utf-8"?>
<!-- Generator: Adobe Illustrator 22.0.1, SVG Export Plug-In . SVG Version: 6.00 Build 0)  -->
<svg version="1.1" id="Layer_1" xmlns="http://www.w3.org/2000/svg" xmlns:xlink="http://www.w3.org/1999/xlink" x="0px" y="0px"
	 viewBox="0 0 40 40" style="enable-background:new 0 0 40 40;" xml:space="preserve">
<g>
	<path d="M20,21c0.5527,0,1-0.4473,1-1V6c0-0.5527-0.4473-1-1-1s-1,0.4473-1,1v14C19,20.5527,19.4473,21,20,21z"/>
	<path d="M30.6719,9.2939c-0.3896-0.3916-1.0225-0.3926-1.4141-0.002c-0.3906,0.3896-0.3926,1.0225-0.002,1.4141
		c5.0508,5.0693,5.0059,13.3623-0.0996,18.4873C26.71,31.6484,23.458,33,20,33s-6.71-1.3516-9.1562-3.8066
		c-5.1055-5.125-5.1504-13.418-0.0996-18.4873c0.3906-0.3916,0.3887-1.0244-0.002-1.4141c-0.3916-0.3896-1.0244-0.3887-1.4141,0.002
		C3.501,15.1416,3.5459,24.7012,9.4277,30.6055C12.251,33.4395,16.0059,35,20,35s7.749-1.5605,10.5723-4.3945
		C36.4541,24.7012,36.499,15.1416,30.6719,9.2939z"/>
</g>
</svg>
