<svg width="144" height="108" viewBox="0 0 144 108" fill="none" xmlns="http://www.w3.org/2000/svg">
<path d="M41.5206 45.6H46.5406C50.0873 45.6 51.8606 46.8733 51.8606 49.42C51.8606 50.1667 51.594 50.8267 51.0606 51.4C50.6073 51.88 50.0606 52.2067 49.4206 52.38C50.3406 52.54 51.074 52.9667 51.6206 53.66C52.114 54.2867 52.3606 55.0333 52.3606 55.9C52.3606 58.6333 50.4606 60 46.6606 60H41.5206V45.6ZM44.0806 58.12H46.9006C48.7806 58.12 49.7206 57.3667 49.7206 55.86C49.7206 54.98 49.454 54.3267 48.9206 53.9C48.4673 53.5267 47.8206 53.34 46.9806 53.34H44.0806V58.12ZM44.0806 51.58H46.8206C47.6606 51.58 48.294 51.3667 48.7206 50.94C49.094 50.5667 49.2806 50.0733 49.2806 49.46C49.2806 48.7667 49.0273 48.2333 48.5206 47.86C48.0673 47.5533 47.474 47.4 46.7406 47.4H44.0806V51.58ZM54.3284 49.6H56.7284V56.44C56.7284 57.7733 57.3818 58.44 58.6884 58.44C59.4484 58.44 60.0418 58.1667 60.4684 57.62C60.8151 57.1533 60.9884 56.58 60.9884 55.9V49.6H63.3884V60H61.4084L61.1484 58.84C60.4018 59.8133 59.3618 60.3 58.0284 60.3C56.8018 60.3 55.8618 59.9267 55.2084 59.18C54.6218 58.5 54.3284 57.5667 54.3284 56.38V49.6ZM71.1119 58.24V60.06C70.5519 60.22 70.0185 60.3 69.5119 60.3C68.4852 60.3 67.7052 59.9933 67.1719 59.38C66.7185 58.86 66.4919 58.16 66.4919 57.28V51.44H64.9319V49.6H66.4919L66.6519 47.1H68.8919V49.6H71.0919V51.44H68.8919V57.36C68.8919 58.0533 69.2452 58.4 69.9519 58.4C70.2585 58.4 70.6452 58.3467 71.1119 58.24ZM77.9088 58.24V60.06C77.3488 60.22 76.8154 60.3 76.3088 60.3C75.2821 60.3 74.5021 59.9933 73.9688 59.38C73.5154 58.86 73.2888 58.16 73.2888 57.28V51.44H71.7288V49.6H73.2888L73.4488 47.1H75.6888V49.6H77.8888V51.44H75.6888V57.36C75.6888 58.0533 76.0421 58.4 76.7487 58.4C77.0554 58.4 77.4421 58.3467 77.9088 58.24ZM78.928 54.78C78.928 52.8867 79.488 51.4533 80.608 50.48C81.528 49.6933 82.728 49.3 84.208 49.3C85.928 49.3 87.2546 49.82 88.188 50.86C89.0546 51.8067 89.488 53.1133 89.488 54.78C89.488 56.6733 88.9413 58.1067 87.848 59.08C86.928 59.8933 85.7146 60.3 84.208 60.3C82.5013 60.3 81.1746 59.7667 80.228 58.7C79.3613 57.7267 78.928 56.42 78.928 54.78ZM84.228 58.52C85.1746 58.52 85.8813 58.1733 86.348 57.48C86.788 56.8533 87.008 55.9533 87.008 54.78C87.008 53.4467 86.7146 52.4667 86.128 51.84C85.6613 51.3333 85.0213 51.08 84.208 51.08C83.2746 51.08 82.568 51.42 82.088 52.1C81.6346 52.7267 81.408 53.62 81.408 54.78C81.408 56.1 81.7013 57.08 82.288 57.72C82.7813 58.2533 83.428 58.52 84.228 58.52ZM93.9183 60H91.5183V49.6H93.4983L93.7583 50.84C94.5183 49.8133 95.5716 49.3 96.9183 49.3C98.1716 49.3 99.1316 49.6867 99.7983 50.46C100.385 51.14 100.678 52.0667 100.678 53.24V60H98.2783V53.3C98.2783 51.8733 97.6183 51.16 96.2983 51.16C95.5783 51.16 94.9916 51.4133 94.5383 51.92C94.1249 52.3867 93.9183 52.9733 93.9183 53.68V60Z" fill="white" fill-opacity="0.95"/>
<rect x="18" y="34" width="106" height="40" rx="20" stroke="white" stroke-opacity="0.3" stroke-width="2"/>
</svg>
