<?xml version="1.0" encoding="utf-8"?>
<!-- Generator: Adobe Illustrator 21.0.2, SVG Export Plug-In . SVG Version: 6.00 Build 0)  -->
<svg version="1.1" id="Layer_1" xmlns="http://www.w3.org/2000/svg" xmlns:xlink="http://www.w3.org/1999/xlink" x="0px" y="0px"
	 viewBox="0 0 40 40" style="enable-background:new 0 0 40 40;" xml:space="preserve">
<style type="text/css">
	.st0{fill:#FFFFFF;}
	.st1{opacity:0.08;fill:#444444;}
	.st2{opacity:0.16;fill:#444444;}
	.st3{fill:#07C1E4;}
	.st4{fill:#05A1BF;}
	.st5{opacity:0.5;fill:#FF4444;}
	.st6{fill:#444444;}
	.st7{fill:#0000F9;}
	.st8{opacity:0.5;fill:#FFF800;}
	.st9{fill:#E3E3E3;}
	.st10{fill:#D4D4D4;}
	.st11{fill:#F0F0F0;}
	.st12{fill:#30D557;}
	.st13{fill:#FF513D;}
	.st14{fill:#FFB400;}
	.st15{fill:#FF0000;}
</style>
<g>
	<path class="st13" d="M20,37c-9.374,0-17-7.626-17-17S10.626,3,20,3s17,7.626,17,17S29.374,37,20,37z"/>
	<path class="st0" d="M20,4c8.8364,0,16,7.1635,16,16s-7.1636,16-16,16S4,28.8365,4,20S11.1636,4,20,4 M20,2
		C10.0747,2,2,10.0748,2,20s8.0747,18,18,18s18-8.0748,18-18S29.9253,2,20,2L20,2z"/>
</g>
</svg>
