<?xml version="1.0" encoding="utf-8"?>
<!-- Generator: Adobe Illustrator 22.0.1, SVG Export Plug-In . SVG Version: 6.00 Build 0)  -->
<svg version="1.1" id="Layer_1" xmlns="http://www.w3.org/2000/svg" xmlns:xlink="http://www.w3.org/1999/xlink" x="0px" y="0px"
	 viewBox="0 0 40 40" style="enable-background:new 0 0 40 40;" xml:space="preserve">
<path d="M23,16c0,0.5527,0.4473,1,1,1h11c0.5527,0,1-0.4473,1-1V5c0-0.5527-0.4473-1-1-1s-1,0.4473-1,1v7.2558
	C31.2163,7.2316,25.875,4,20,4C11.1777,4,4,11.1777,4,20s7.1777,16,16,16c7.9883,0,14.8066-5.9619,15.8594-13.8682
	c0.0732-0.5469-0.3115-1.0498-0.8594-1.123c-0.5469-0.0713-1.0498,0.3115-1.123,0.8594C32.9561,28.7842,26.9902,34,20,34
	c-7.7197,0-14-6.2803-14-14S12.2803,6,20,6c5.8027,0,11.0061,3.6047,13.0715,9H24C23.4473,15,23,15.4473,23,16z"/>
</svg>
