<?xml version="1.0" encoding="utf-8"?>
<!-- Generator: Adobe Illustrator 21.0.2, SVG Export Plug-In . SVG Version: 6.00 Build 0)  -->
<svg version="1.1" id="Layer_1" xmlns="http://www.w3.org/2000/svg" xmlns:xlink="http://www.w3.org/1999/xlink" x="0px" y="0px"
	 viewBox="0 0 40 40" style="enable-background:new 0 0 40 40;" xml:space="preserve">
<style type="text/css">
	.st0{fill:#FFFFFF;}
	.st1{opacity:0.08;fill:#444444;}
	.st2{fill:#07C1E4;}
	.st3{opacity:0.16;fill:#444444;}
	.st4{fill:#05A1BF;}
	.st5{opacity:0.16;fill:none;stroke:#444444;stroke-width:0.5;stroke-miterlimit:10;}
	.st6{fill:#444444;}
	.st7{opacity:0.5;fill:#FF4444;}
	.st8{fill:#0000F9;}
	.st9{opacity:0.5;fill:#FFF800;}
	.st10{fill:#E3E3E3;}
	.st11{fill:#D4D4D4;}
	.st12{fill:#F0F0F0;}
	.st13{fill:#30D557;}
	.st14{fill:#FF513D;}
	.st15{fill:#FFB400;}
</style>
<path class="st2" d="M23,16c0,0.5527,0.4473,1,1,1h11c0.5527,0,1-0.4473,1-1V5c0-0.5527-0.4473-1-1-1s-1,0.4473-1,1v7.2558
	C31.2163,7.2316,25.875,4,20,4C11.1777,4,4,11.1777,4,20s7.1777,16,16,16c7.9883,0,14.8066-5.9619,15.8594-13.8682
	c0.0732-0.5469-0.3115-1.0498-0.8594-1.123c-0.5469-0.0713-1.0498,0.3115-1.123,0.8594C32.9561,28.7842,26.9902,34,20,34
	c-7.7197,0-14-6.2803-14-14S12.2803,6,20,6c5.8027,0,11.0061,3.6047,13.0715,9H24C23.4473,15,23,15.4473,23,16z"/>
</svg>
