<svg width="48" height="48" viewBox="0 0 48 48" fill="none" xmlns="http://www.w3.org/2000/svg">
<path d="M43.4957 31.7717C43.8656 31.9524 44.1889 32.2158 44.4405 32.5415C44.69 32.8603 44.8627 33.2322 44.9452 33.6285C45.0278 34.0248 45.0179 34.4348 44.9165 34.8266C44.4943 36.4579 43.54 37.9018 42.2046 38.9294C40.8691 39.9571 39.229 40.5098 37.544 40.5H10.4561C8.77051 40.5095 7.12993 39.9564 5.79423 38.9282C4.45854 37.9001 3.50409 36.4556 3.08207 34.8237C2.98141 34.4321 2.97212 34.0227 3.05493 33.627C3.13773 33.2312 3.31041 32.8598 3.55961 32.5415C3.81125 32.2158 4.13455 31.9524 4.50442 31.7717C4.8743 31.5911 5.28081 31.4981 5.69242 31.5H42.3077C42.7193 31.4981 43.1259 31.5911 43.4957 31.7717Z" fill="white" fill-opacity="0.95"/>
<path d="M39.8423 9.80065C41.2483 11.2445 42.0242 13.187 42 15.2022V28.5H6.00003L6.00004 15.2022C5.97585 13.187 6.75182 11.2445 8.15778 9.80065C9.56375 8.35678 11.4849 7.52941 13.5 7.5H34.5C36.5151 7.52941 38.4363 8.35678 39.8423 9.80065Z" fill="white" fill-opacity="0.95"/>
</svg>
