<?xml version="1.0" encoding="utf-8"?>
<!-- Generator: Adobe Illustrator 21.0.2, SVG Export Plug-In . SVG Version: 6.00 Build 0)  -->
<svg version="1.1" id="Layer_1" xmlns="http://www.w3.org/2000/svg" xmlns:xlink="http://www.w3.org/1999/xlink" x="0px" y="0px"
	 viewBox="0 0 40 40" style="enable-background:new 0 0 40 40;" xml:space="preserve">
<style type="text/css">
	.st0{fill:#FFFFFF;}
	.st1{opacity:0.08;fill:#444444;}
	.st2{fill:#07C1E4;}
	.st3{opacity:0.16;fill:#444444;}
	.st4{fill:#05A1BF;}
	.st5{opacity:0.16;fill:none;stroke:#444444;stroke-width:0.5;stroke-miterlimit:10;}
	.st6{fill:#444444;}
	.st7{opacity:0.5;fill:#FF4444;}
	.st8{fill:#0000F9;}
	.st9{opacity:0.5;fill:#FFF800;}
	.st10{fill:#E3E3E3;}
	.st11{fill:#D4D4D4;}
	.st12{fill:#F0F0F0;}
	.st13{fill:#30D557;}
	.st14{fill:#FF513D;}
	.st15{fill:#FFB400;}
</style>
<g>
	<path class="st2" d="M32.5806,13.0054L29.293,16.293c-0.3906,0.3906-0.3906,1.0234,0,1.4141C29.4883,17.9023,29.7441,18,30,18
		s0.5117-0.0977,0.707-0.293l5-5c0.3906-0.3906,0.3906-1.0234,0-1.4141l-5-5c-0.3906-0.3906-1.0234-0.3906-1.4141,0
		s-0.3906,1.0234,0,1.4141l3.2977,3.2977c-3.9872,0.0754-7.5497,1.6409-10.5862,4.6779l-2.8934,2.8932l-2.8932-2.8932
		C13.1987,12.6631,9.2148,11,5,11c-0.5522,0-1,0.4473-1,1s0.4478,1,1,1c3.6807,0,7.1621,1.4551,9.8037,4.0967l2.8932,2.8932
		l-2.8932,2.8929C12.1489,25.5381,8.6675,27,5,27c-0.5522,0-1,0.4473-1,1s0.4478,1,1,1c4.2017,0,8.1855-1.6699,11.2178-4.7031
		l7.2007-7.2002C26.0634,14.4517,29.1464,13.0838,32.5806,13.0054z"/>
	<path class="st2" d="M30.707,22.293c-0.3906-0.3906-1.0234-0.3906-1.4141,0s-0.3906,1.0234,0,1.4141l3.2678,3.2678
		c-3.3036-0.08-6.3682-1.349-8.8762-3.7043c-0.4023-0.376-1.0347-0.3584-1.4136,0.0449c-0.3779,0.4023-0.3579,1.0352,0.0444,1.4141
		c2.8984,2.7206,6.4537,4.1791,10.2934,4.2476L29.293,32.293c-0.3906,0.3906-0.3906,1.0234,0,1.4141
		C29.4883,33.9023,29.7441,34,30,34s0.5117-0.0977,0.707-0.293l5-5c0.3906-0.3906,0.3906-1.0234,0-1.4141L30.707,22.293z"/>
</g>
</svg>
