<svg width="144" height="108" viewBox="0 0 144 108" fill="none" xmlns="http://www.w3.org/2000/svg">
<rect x="25" y="42" width="94" height="24" rx="12" fill="white" fill-opacity="0.2"/>
<path fill-rule="evenodd" clip-rule="evenodd" d="M37 42C30.3726 42 25 47.3726 25 54C25 60.6274 30.3726 66 37 66H72C65.3726 66 60 60.6274 60 54C60 47.3726 65.3726 42 72 42H37Z" fill="white" fill-opacity="0.5"/>
<g filter="url(#filter0_dd_1747_15674)">
<path fill-rule="evenodd" clip-rule="evenodd" d="M72 66C78.6274 66 84 60.6274 84 54C84 47.3726 78.6274 42 72 42C65.3726 42 60 47.3726 60 54C60 60.6274 65.3726 66 72 66Z" fill="white" fill-opacity="0.95"/>
</g>
<defs>
<filter id="filter0_dd_1747_15674" x="52" y="38" width="40" height="40" filterUnits="userSpaceOnUse" color-interpolation-filters="sRGB">
<feFlood flood-opacity="0" result="BackgroundImageFix"/>
<feColorMatrix in="SourceAlpha" type="matrix" values="0 0 0 0 0 0 0 0 0 0 0 0 0 0 0 0 0 0 127 0" result="hardAlpha"/>
<feOffset/>
<feGaussianBlur stdDeviation="0.5"/>
<feColorMatrix type="matrix" values="0 0 0 0 0 0 0 0 0 0 0 0 0 0 0 0 0 0 0.16 0"/>
<feBlend mode="normal" in2="BackgroundImageFix" result="effect1_dropShadow_1747_15674"/>
<feColorMatrix in="SourceAlpha" type="matrix" values="0 0 0 0 0 0 0 0 0 0 0 0 0 0 0 0 0 0 127 0" result="hardAlpha"/>
<feOffset dy="4"/>
<feGaussianBlur stdDeviation="4"/>
<feColorMatrix type="matrix" values="0 0 0 0 0 0 0 0 0 0 0 0 0 0 0 0 0 0 0.16 0"/>
<feBlend mode="normal" in2="effect1_dropShadow_1747_15674" result="effect2_dropShadow_1747_15674"/>
<feBlend mode="normal" in="SourceGraphic" in2="effect2_dropShadow_1747_15674" result="shape"/>
</filter>
</defs>
</svg>
