<?xml version="1.0" encoding="utf-8"?>
<!-- Generator: Adobe Illustrator 22.0.1, SVG Export Plug-In . SVG Version: 6.00 Build 0)  -->
<svg version="1.1" id="Layer_1" xmlns="http://www.w3.org/2000/svg" xmlns:xlink="http://www.w3.org/1999/xlink" x="0px" y="0px"
	 viewBox="0 0 40 40" style="enable-background:new 0 0 40 40;" xml:space="preserve">
<g>
	<g>
		<path d="M26.5537,35.0022c-0.374,0-0.7412-0.1465-1.0186-0.4229l-8.4697-8.5869H13.5c-1.9297,0-3.5-1.5703-3.5-3.5v-5
			c0-1.9297,1.5703-3.4902,3.5-3.4902h3.5654l8.4648-8.5762c0.001-0.001,0.002-0.0029,0.0039-0.0039
			c0.4141-0.415,1.0312-0.5381,1.5742-0.3135C27.6504,5.3332,28,5.8567,28,6.4426v27.1143c0,0.5859-0.3496,1.1094-0.8906,1.334
			C26.9297,34.9651,26.7402,35.0022,26.5537,35.0022z M13.5,15.9924c-0.8271,0-1.5,0.6729-1.5,1.5v5
			c0,0.8271,0.6729,1.5098,1.5,1.5098h3.9834c0.2676,0,0.5244,0.1074,0.7119,0.2979L26,32.2024V7.7961l-7.8057,7.8994
			c-0.1875,0.1895-0.4434,0.2969-0.7109,0.2969H13.5z"/>
	</g>
</g>
</svg>
