<svg width="144" height="108" viewBox="0 0 144 108" fill="none" xmlns="http://www.w3.org/2000/svg">
<path d="M51.5303 57.9696L42.5303 48.9696C42.3897 48.829 42.1989 48.75 42 48.75C41.8011 48.75 41.6104 48.829 41.4698 48.9696L32.4697 57.9696C32.3987 58.0389 32.342 58.1217 32.3032 58.213C32.2643 58.3044 32.244 58.4026 32.2433 58.5019C32.2427 58.6012 32.2618 58.6996 32.2995 58.7915C32.3372 58.8833 32.3928 58.9668 32.463 59.037C32.5332 59.1072 32.6166 59.1627 32.7085 59.2004C32.8004 59.2382 32.8988 59.2572 32.9981 59.2566C33.0974 59.256 33.1955 59.2357 33.2869 59.1968C33.3783 59.1579 33.461 59.1013 33.5303 59.0302L42 50.5605L50.4697 59.0302C50.5391 59.1013 50.6218 59.1579 50.7132 59.1968C50.8045 59.2357 50.9027 59.256 51.002 59.2566C51.1013 59.2572 51.1997 59.2382 51.2916 59.2004C51.3834 59.1627 51.4669 59.1072 51.5371 59.037C51.6073 58.9668 51.6629 58.8833 51.7006 58.7915C51.7383 58.6996 51.7574 58.6012 51.7567 58.5019C51.7561 58.4026 51.7358 58.3044 51.6969 58.213C51.658 58.1217 51.6014 58.0389 51.5303 57.9696Z" fill="white" fill-opacity="0.95"/>
<rect x="19" y="31" width="46" height="46" rx="23" stroke="white" stroke-opacity="0.3" stroke-width="2"/>
<path d="M111.531 48.9696C111.39 48.829 111.199 48.75 111 48.75C110.801 48.75 110.611 48.829 110.47 48.9696L102 57.4394L93.5302 48.9696C93.3889 48.8325 93.1993 48.7565 93.0023 48.758C92.8054 48.7595 92.617 48.8384 92.4777 48.9777C92.3385 49.1169 92.2596 49.3054 92.2581 49.5023C92.2566 49.6992 92.3326 49.8889 92.4697 50.0302L101.47 59.0302C101.61 59.1708 101.801 59.2498 102 59.2498C102.199 59.2498 102.39 59.1708 102.53 59.0302L111.53 50.0302C111.671 49.8896 111.75 49.6989 111.75 49.5C111.75 49.3011 111.671 49.1103 111.531 48.9696Z" fill="white" fill-opacity="0.95"/>
<rect x="79" y="31" width="46" height="46" rx="23" stroke="white" stroke-opacity="0.3" stroke-width="2"/>
</svg>
