<?xml version="1.0" encoding="utf-8"?>
<!-- Generator: Adobe Illustrator 22.0.1, SVG Export Plug-In . SVG Version: 6.00 Build 0)  -->
<svg version="1.1" id="Layer_1" xmlns="http://www.w3.org/2000/svg" xmlns:xlink="http://www.w3.org/1999/xlink" x="0px" y="0px"
	 viewBox="0 0 40 40" style="enable-background:new 0 0 40 40;" xml:space="preserve">
<g>
	<path d="M30,34H10c-2.2056,0-4-1.7939-4-4V10c0-2.2056,1.7944-4,4-4h20c2.2061,0,4,1.7944,4,4v20C34,32.2061,32.2061,34,30,34z
		 M10,8c-1.103,0-2,0.897-2,2v20c0,1.1025,0.897,2,2,2h20c1.1025,0,2-0.8975,2-2V10c0-1.103-0.8975-2-2-2H10z"/>
</g>
</svg>
