<svg width="144" height="108" viewBox="0 0 144 108" fill="none" xmlns="http://www.w3.org/2000/svg">
<path d="M63.9293 45.6V47.7H59.3093V60H56.7493V47.7H52.1893V45.6H63.9293ZM70.8185 57H73.3385C73.0585 58.0667 72.4785 58.8933 71.5985 59.48C70.7585 60.0267 69.7252 60.3 68.4985 60.3C66.8052 60.3 65.4852 59.7667 64.5385 58.7C63.6718 57.7267 63.2385 56.4267 63.2385 54.8C63.2385 52.9333 63.7785 51.5067 64.8585 50.52C65.7652 49.7067 66.9452 49.3 68.3985 49.3C70.0918 49.3 71.3718 49.8533 72.2385 50.96C73.0518 51.9867 73.4585 53.4533 73.4585 55.36H65.6785C65.7718 56.48 66.1185 57.3 66.7185 57.82C67.1985 58.2467 67.8252 58.46 68.5985 58.46C69.1452 58.46 69.6185 58.3267 70.0185 58.06C70.4185 57.7933 70.6852 57.44 70.8185 57ZM70.9985 53.72C70.9452 52.7467 70.6518 52.0333 70.1185 51.58C69.6785 51.1933 69.1052 51 68.3985 51C67.6252 51 67.0052 51.2533 66.5385 51.76C66.1118 52.2133 65.8385 52.8667 65.7185 53.72H70.9985ZM84.4363 49.6L80.9763 54.46L85.0163 60H82.1163L79.5963 56.3L77.0763 60H74.3963L78.2763 54.56L74.6163 49.6H77.4563L79.6763 52.78L81.8163 49.6H84.4363ZM91.6138 58.24V60.06C91.0538 60.22 90.5205 60.3 90.0138 60.3C88.9872 60.3 88.2072 59.9933 87.6738 59.38C87.2205 58.86 86.9938 58.16 86.9938 57.28V51.44H85.4338V49.6H86.9938L87.1538 47.1H89.3938V49.6H91.5938V51.44H89.3938V57.36C89.3938 58.0533 89.7472 58.4 90.4538 58.4C90.7605 58.4 91.1472 58.3467 91.6138 58.24Z" fill="white" fill-opacity="0.95"/>
</svg>
