<?xml version="1.0" encoding="utf-8"?>
<!-- Generator: Adobe Illustrator 22.0.1, SVG Export Plug-In . SVG Version: 6.00 Build 0)  -->
<svg version="1.1" id="Layer_1" xmlns="http://www.w3.org/2000/svg" xmlns:xlink="http://www.w3.org/1999/xlink" x="0px" y="0px"
	 viewBox="0 0 40 40" style="enable-background:new 0 0 40 40;" xml:space="preserve">
<path d="M34.834,13.1543c-0.708-0.292-1.5156-0.1309-2.0576,0.4092L29,17.3245V12.5c0-0.6011-0.1646-1.1587-0.4326-1.6534
	L30.707,8.707c0.3906-0.3906,0.3906-1.0234,0-1.4141s-1.0234-0.3906-1.4141,0L27.1528,9.433C26.6587,9.1658,26.1021,9,25.502,9H9.5
	C7.5703,9,6,10.5703,6,12.5v15c0,0.8593,0.3232,1.637,0.8389,2.2468L5.293,31.293c-0.3906,0.3906-0.3906,1.0234,0,1.4141
	C5.4883,32.9023,5.7441,33,6,33s0.5117-0.0977,0.707-0.293l1.8521-1.8519C8.8604,30.9401,9.1719,31,9.5,31h16.002
	C27.4316,31,29,29.4297,29,27.5v-4.7932l3.7754,3.76c0.3623,0.3623,0.8438,0.5547,1.334,0.5547
	c0.2432,0,0.4893-0.0479,0.7246-0.1445C35.542,26.583,36,25.8984,36,25.1318V14.8994C36,14.1328,35.542,13.4482,34.834,13.1543z
	 M8,27.5v-15C8,11.6729,8.6729,11,9.5,11h16.002c0.0264,0,0.0503,0.0063,0.0762,0.0077L8.2534,28.3325
	C8.0938,28.0941,8,27.8079,8,27.5z M25.502,29H10.4141l16.5801-16.5798c0.001,0.027,0.0078,0.0525,0.0078,0.0798v7.2371
	c0,0.0105-0.0005,0.0208,0,0.0312v0.4945c-0.0005,0.0105,0,0.0208,0,0.0312V27.5C27.002,28.3271,26.3291,29,25.502,29z M34,24.8643
	l-4.8652-4.8486L34,15.167V24.8643z"/>
</svg>
