<?xml version="1.0" encoding="utf-8"?>
<!-- Generator: Adobe Illustrator 27.3.1, SVG Export Plug-In . SVG Version: 6.00 Build 0)  -->
<svg version="1.1" id="Layer_1" xmlns="http://www.w3.org/2000/svg" xmlns:xlink="http://www.w3.org/1999/xlink" x="0px" y="0px"
	 viewBox="0 0 112 72" style="enable-background:new 0 0 112 72;" xml:space="preserve">
<style type="text/css">
	.st0{fill:#AFAFAF;}
	.st1{fill:#005073;}
	.st2{fill:#FFB400;}
	.st3{fill:#02BBCC;}
	.st4{fill:#FFFFFF;}
	.st5{fill:#D540D8;}
	.st6{clip-path:url(#SVGID_00000160888338722857199880000000912764876435199109_);fill:#FFFFFF;}
	.st7{clip-path:url(#SVGID_00000127724962772243874500000004781870712630102918_);fill:#FFFFFF;}
	.st8{fill:#00D6A2;}
</style>
<path class="st8" d="M108,72H4c-2.2091,0-4-1.7909-4-4V4c0-2.2091,1.7909-4,4-4h104c2.2091,0,4,1.7909,4,4v64
	C112,70.2091,110.2091,72,108,72z"/>
<g>
	<path class="st4" d="M24,8H11c-0.5523,0-1-0.4477-1-1v0c0-0.5523,0.4477-1,1-1h13c0.5523,0,1,0.4477,1,1v0
		C25,7.5523,24.5523,8,24,8z"/>
	<circle class="st4" cx="7" cy="7" r="1"/>
</g>
<g>
	<g>
		<circle class="st4" cx="20" cy="28" r="5"/>
	</g>
	<g>
		<circle class="st4" cx="35" cy="28" r="5"/>
	</g>
	<g>
		<circle class="st4" cx="50" cy="28" r="5"/>
	</g>
	<g>
		<circle class="st4" cx="20" cy="44" r="5"/>
	</g>
	<g>
		<circle class="st4" cx="35" cy="44" r="5"/>
	</g>
	<g>
		<circle class="st4" cx="50" cy="44" r="5"/>
	</g>
</g>
<path class="st4" d="M94,21c1.1028,0,2,0.8972,2,2v26c0,1.1028-0.8972,2-2,2H68c-1.1028,0-2-0.8972-2-2V23c0-1.1028,0.8972-2,2-2H94
	 M94,20H68c-1.6569,0-3,1.3431-3,3v26c0,1.6569,1.3431,3,3,3h26c1.6569,0,3-1.3431,3-3V23C97,21.3431,95.6569,20,94,20L94,20z"/>
<path class="st4" d="M85,35.5h-3.5V32c0-0.2764-0.2236-0.5-0.5-0.5s-0.5,0.2236-0.5,0.5v3.5H77c-0.2764,0-0.5,0.2236-0.5,0.5
	s0.2236,0.5,0.5,0.5h3.5V40c0,0.2764,0.2236,0.5,0.5,0.5s0.5-0.2236,0.5-0.5v-3.5H85c0.2764,0,0.5-0.2236,0.5-0.5
	S85.2764,35.5,85,35.5z"/>
</svg>
