<?xml version="1.0" encoding="utf-8"?>
<!-- Generator: Adobe Illustrator 22.0.1, SVG Export Plug-In . SVG Version: 6.00 Build 0)  -->
<svg version="1.1" id="Layer_1" xmlns="http://www.w3.org/2000/svg" xmlns:xlink="http://www.w3.org/1999/xlink" x="0px" y="0px"
	 viewBox="0 0 40 40" style="enable-background:new 0 0 40 40;" xml:space="preserve">
<style type="text/css">
	.st0{fill:#FFFFFF;}
</style>
<g>
	<path class="st0" d="M33.12,17.12c-1.5905,0-2.88,1.2894-2.88,2.88c0,4.8432-3.38,8.9117-7.9049,9.9711
		c0.9628,0.7147,1.5884,1.8594,1.5888,3.1477c0.0003,0.9733-0.3522,1.8922-0.9963,2.6118C30.3567,34.3512,36,27.8226,36,20
		C36,18.4094,34.7105,17.12,33.12,17.12z"/>
	<path class="st0" d="M10.7227,25.3572c0.196,0,0.3897,0.0143,0.5801,0.0424C10.3254,23.8311,9.76,21.9804,9.76,20
		c0-1.9794,0.5651-3.829,1.5416-5.3971c-0.1909,0.0282-0.3851,0.0426-0.5816,0.0426c-1.0466,0-2.0307-0.4075-2.771-1.1473
		c-0.6858-0.6854-1.0858-1.5803-1.1416-2.5403C5.0376,13.5321,4,16.6469,4,20c0,3.3548,1.0386,6.471,2.8102,9.0458
		c0.0555-0.9599,0.4552-1.8548,1.1406-2.5402C8.6912,25.765,9.6756,25.3572,10.7227,25.3572z"/>
	<path class="st0" d="M22.3323,10.0285c3.7767,0.8832,6.7562,3.8621,7.6395,7.6389c0.715-0.9625,1.8599-1.5874,3.1483-1.5874
		c1.0027,0,1.9182,0.3788,2.6121,1.0003c-1.2009-6.4862-6.3268-11.6121-12.8129-12.8129C23.541,4.9614,23.92,5.8771,23.92,6.88
		C23.92,8.1685,23.2949,9.3136,22.3323,10.0285z"/>
	<path class="st0" d="M20.0039,30.24c-0.0015-0.0001-0.0026,0-0.0041,0c-2.735,0-5.3066-1.0652-7.2407-2.9992
		c-1.1247-1.1247-2.9482-1.1248-4.0729,0.0001c-1.1247,1.1247-1.1247,2.9482,0.0001,4.0729C11.7085,34.3359,15.7261,36,19.9998,36
		c0,0,0.0001,0,0.0002,0c0.0015,0,0.0032,0,0.0048,0c0.0016,0,0.0031-0.0001,0.0047-0.0001c-0.0001,0-0.0002,0-0.0002,0
		c1.5886-0.0029,2.8751-1.2917,2.8747-2.8807C22.8834,31.5288,21.5941,30.24,20.0039,30.24z"/>
	<path class="st0" d="M10.72,13.6055c0.7373,0,1.4747-0.2814,2.037-0.8441c1.8084-1.8094,4.1743-2.8586,6.7106-2.9876
		c0.0023-0.0001,0.0046-0.0003,0.0069-0.0004c0.0757-0.0038,0.1516-0.0065,0.2276-0.0087c0.0121-0.0004,0.0241-0.001,0.0362-0.0013
		C19.8254,9.7612,19.9126,9.76,20,9.76c1.5905,0,2.88-1.2894,2.88-2.88S21.5905,4,20,4c-0.1366,0-0.2729,0.0018-0.4089,0.0052
		c-0.019,0.0005-0.0378,0.0015-0.0568,0.0021c-0.1187,0.0034-0.2372,0.0076-0.3553,0.0136
		c-0.004,0.0002-0.0079,0.0005-0.0119,0.0007C15.2046,4.2234,11.5082,5.8627,8.683,8.6896C8.6273,8.7454,8.5752,8.8032,8.525,8.8622
		c-0.9629,1.1318-0.9102,2.8317,0.1591,3.9004C9.2465,13.3246,9.9832,13.6055,10.72,13.6055z"/>
	<path class="st0" d="M13.8221,26.864c1.638,1.4778,3.8075,2.3778,6.1873,2.3778c5.1031,0,9.24-4.1369,9.24-9.24
		c0-2.2953-0.8372-4.3948-2.2225-6.0106C26.8233,21.1195,20.9937,26.8384,13.8221,26.864z"/>
</g>
</svg>
