<?xml version="1.0" encoding="utf-8"?>
<!-- Generator: Adobe Illustrator 22.0.1, SVG Export Plug-In . SVG Version: 6.00 Build 0)  -->
<svg version="1.1" id="Layer_1" xmlns="http://www.w3.org/2000/svg" xmlns:xlink="http://www.w3.org/1999/xlink" x="0px" y="0px"
	 viewBox="0 0 40 40" style="enable-background:new 0 0 40 40;" xml:space="preserve">
<style type="text/css">
	.st0{fill:#FFFFFF;}
</style>
<g>
	<path class="st0" d="M20.0095,29.2418c5.1031,0,9.24-4.1369,9.24-9.24c0-2.2953-0.8372-4.3948-2.2225-6.0106
		c-0.2037,7.1283-6.0332,12.8471-13.2048,12.8728C15.4601,28.3419,17.6296,29.2418,20.0095,29.2418z"/>
	<path class="st0" d="M31.3733,8.7463c-1.1187-1.1306-2.9423-1.1402-4.0728-0.0214c-1.1306,1.1188-1.1402,2.9423-0.0214,4.0729
		C29.1884,14.7273,30.24,17.2851,30.24,20c0,5.6463-4.5937,10.24-10.24,10.24c-2.7364,0-5.3087-1.0659-7.243-3.0013
		c-1.1242-1.125-2.9477-1.1255-4.0729-0.0012c-1.1251,1.1243-1.1256,2.9479-0.0012,4.0729C11.7053,34.3345,15.7245,36,20,36
		c8.8224,0,16-7.1776,16-16C36,15.758,34.3569,11.7613,31.3733,8.7463z"/>
	<path class="st0" d="M10.7201,25.3546c0.1968,0,0.3911,0.0152,0.5822,0.0436C10.3254,23.8298,9.76,21.9798,9.76,20
		c0-5.6463,4.5937-10.24,10.24-10.24c2.0002,0,3.8679,0.577,5.4465,1.5725c-0.0272-0.1908-0.0413-0.3848-0.0403-0.5811
		c0.0055-1.0471,0.4184-2.0293,1.1627-2.7658c0.6884-0.6813,1.5858-1.077,2.546-1.1277C26.5268,5.0574,23.3848,4,20,4
		C11.1776,4,4,11.1776,4,20c0,3.3531,1.0376,6.468,2.8074,9.0421c0.0558-0.9601,0.4557-1.8549,1.1416-2.5403
		C8.6894,25.762,9.6735,25.3546,10.7201,25.3546z"/>
</g>
</svg>
