<svg width="643" height="362" viewBox="0 0 643 362" fill="none" xmlns="http://www.w3.org/2000/svg">
<circle cx="310" cy="320" r="2" fill="#D2D2D2"/>
<circle cx="334" cy="320" r="2" fill="#C9C9C9" fill-opacity="0.5"/>
<circle cx="322" cy="320" r="2" fill="#C9C9C9" fill-opacity="0.5"/>
<rect x="0.5" y="0.5" width="642" height="361" rx="11.5" stroke="#5B5B5B"/>
<g filter="url(#filter0_dd_1745_7154)">
<rect x="339" y="82" width="201" height="201" rx="12" fill="#53B4D3"/>
</g>
<path d="M386.52 176H385.005V171.71L381.045 165.2H382.725L385.77 170.39L388.92 165.2H390.48L386.52 171.71V176ZM389.585 172.1C389.585 169.295 391.325 167.975 393.44 167.975C395.57 167.975 397.28 169.295 397.28 172.1C397.28 174.83 395.63 176.225 393.425 176.225C391.25 176.225 389.585 174.8 389.585 172.1ZM391.085 172.1C391.085 174.035 392.105 175.055 393.455 175.055C394.835 175.055 395.78 174.035 395.78 172.1C395.78 170.12 394.775 169.145 393.44 169.145C392.105 169.145 391.085 170.15 391.085 172.1ZM398.851 168.2H400.291V173.315C400.291 174.47 400.906 174.995 401.911 174.995C403.216 174.995 403.831 174.02 403.831 172.955V168.2H405.271V176H404.086L403.921 175.1C403.366 175.85 402.526 176.225 401.581 176.225C399.976 176.225 398.851 175.28 398.851 173.285V168.2ZM408.819 176H407.379V168.2H408.564L408.759 169.355C409.194 168.455 409.869 167.975 410.739 167.975C411.114 167.975 411.414 168.035 411.594 168.08V169.52C411.309 169.445 411.024 169.385 410.679 169.385C409.689 169.385 408.819 170.12 408.819 172.085V176ZM426.657 168.2H428.097L425.817 176H424.152L422.262 169.835L420.402 176H418.677L416.397 168.2H417.897L419.577 174.47L421.437 168.2H423.162L424.992 174.44L426.657 168.2ZM434.5 173.75H436.06C435.67 175.175 434.44 176.225 432.565 176.225C430.345 176.225 428.74 174.845 428.74 172.1C428.74 169.385 430.33 167.975 432.49 167.975C434.65 167.975 436.15 169.265 436.15 172.415H430.21C430.33 174.215 431.305 175.01 432.61 175.01C433.555 175.01 434.275 174.47 434.5 173.75ZM430.27 171.275H434.68C434.575 169.82 433.72 169.13 432.52 169.13C431.365 169.13 430.495 169.835 430.27 171.275ZM439.062 176H437.877V165.2H439.317V169.28C439.842 168.53 440.712 167.975 441.927 167.975C443.982 167.975 445.362 169.445 445.362 172.04C445.362 174.74 443.877 176.225 441.822 176.225C440.622 176.225 439.797 175.7 439.287 174.965L439.062 176ZM443.862 172.01C443.862 170.09 442.887 169.205 441.597 169.205C440.307 169.205 439.242 170.15 439.242 172.01C439.242 173.9 440.187 174.995 441.597 174.995C442.947 174.995 443.862 174.065 443.862 172.01ZM460.949 168.2H462.389L460.109 176H458.444L456.554 169.835L454.694 176H452.969L450.689 168.2H452.189L453.869 174.47L455.729 168.2H457.454L459.284 174.44L460.949 168.2ZM465.188 166.895H463.568V165.2H465.188V166.895ZM465.098 176H463.658V168.2H465.098V176ZM474.238 176H473.053L472.798 174.905C472.273 175.67 471.418 176.225 470.203 176.225C468.238 176.225 466.753 174.785 466.753 172.145C466.753 169.355 468.208 167.975 470.293 167.975C471.478 167.975 472.288 168.485 472.798 169.19V165.2H474.238V176ZM468.253 172.175C468.253 174.05 469.213 174.995 470.518 174.995C472.003 174.995 472.873 173.825 472.873 172.19C472.873 170.285 471.958 169.205 470.518 169.205C469.153 169.205 468.253 170.135 468.253 172.175ZM476.253 176.525H477.798C477.933 177.305 478.593 177.785 479.733 177.785C481.188 177.785 481.938 177.05 481.938 175.76V174.755C481.413 175.37 480.543 175.775 479.343 175.775C477.513 175.775 475.893 174.41 475.893 171.92C475.893 169.475 477.318 167.975 479.433 167.975C480.648 167.975 481.473 168.5 481.968 169.235L482.193 168.2H483.378V175.835C483.378 177.605 482.088 178.925 479.778 178.925C477.693 178.925 476.508 177.98 476.253 176.525ZM477.393 171.95C477.393 173.6 478.413 174.545 479.658 174.545C481.143 174.545 482.013 173.57 482.013 171.995C482.013 170.165 481.053 169.205 479.658 169.205C478.338 169.205 477.393 170.09 477.393 171.95ZM490.794 173.75H492.354C491.964 175.175 490.734 176.225 488.859 176.225C486.639 176.225 485.034 174.845 485.034 172.1C485.034 169.385 486.624 167.975 488.784 167.975C490.944 167.975 492.444 169.265 492.444 172.415H486.504C486.624 174.215 487.599 175.01 488.904 175.01C489.849 175.01 490.569 174.47 490.794 173.75ZM486.564 171.275H490.974C490.869 169.82 490.014 169.13 488.814 169.13C487.659 169.13 486.789 169.835 486.564 171.275ZM497.651 174.845V176.075C497.261 176.18 496.946 176.225 496.586 176.225C495.206 176.225 494.501 175.355 494.501 174.065V169.43H493.346V168.2H494.501L494.591 166.325H495.941V168.2H497.621V169.43H495.941V174.095C495.941 174.68 496.226 174.965 496.766 174.965C497.021 174.965 497.216 174.95 497.651 174.845ZM394.152 188.2H395.592L393.312 196H391.647L389.757 189.835L387.897 196H386.172L383.892 188.2H385.392L387.072 194.47L388.932 188.2H390.657L392.487 194.44L394.152 188.2ZM398.391 186.895H396.771V185.2H398.391V186.895ZM398.301 196H396.861V188.2H398.301V196ZM401.846 185.2V196H400.406V185.2H401.846ZM405.391 185.2V196H403.951V185.2H405.391ZM413.223 190.375H411.693C411.843 188.935 413.088 187.975 415.038 187.975C417.078 187.975 418.218 189.07 418.218 190.675V196H417.033L416.853 194.935C416.343 195.655 415.503 196.225 414.243 196.225C412.533 196.225 411.543 195.265 411.543 193.99C411.543 192.565 412.398 191.755 414.498 191.395L416.778 191.005V190.615C416.778 189.655 416.133 189.115 414.978 189.115C413.868 189.115 413.328 189.595 413.223 190.375ZM416.778 192.13L414.843 192.475C413.448 192.715 413.073 193.15 413.073 193.84C413.073 194.59 413.613 195.01 414.588 195.01C415.683 195.01 416.778 194.2 416.778 193.135V192.13ZM420.24 188.2H421.425L421.65 189.22C422.205 188.5 423.09 187.975 424.29 187.975C426.345 187.975 427.725 189.445 427.725 192.04C427.725 194.74 426.24 196.225 424.185 196.225C423 196.225 422.175 195.715 421.68 194.995V198.7H420.24V188.2ZM426.225 192.01C426.225 190.09 425.25 189.205 423.96 189.205C422.67 189.205 421.605 190.15 421.605 192.01C421.605 193.9 422.55 194.995 423.96 194.995C425.31 194.995 426.225 194.065 426.225 192.01ZM429.381 188.2H430.566L430.791 189.22C431.346 188.5 432.231 187.975 433.431 187.975C435.486 187.975 436.866 189.445 436.866 192.04C436.866 194.74 435.381 196.225 433.326 196.225C432.141 196.225 431.316 195.715 430.821 194.995V198.7H429.381V188.2ZM435.366 192.01C435.366 190.09 434.391 189.205 433.101 189.205C431.811 189.205 430.746 190.15 430.746 192.01C430.746 193.9 431.691 194.995 433.101 194.995C434.451 194.995 435.366 194.065 435.366 192.01ZM443.831 193.75H445.391C445.001 195.175 443.771 196.225 441.896 196.225C439.676 196.225 438.071 194.845 438.071 192.1C438.071 189.385 439.661 187.975 441.821 187.975C443.981 187.975 445.481 189.265 445.481 192.415H439.541C439.661 194.215 440.636 195.01 441.941 195.01C442.886 195.01 443.606 194.47 443.831 193.75ZM439.601 191.275H444.011C443.906 189.82 443.051 189.13 441.851 189.13C440.696 189.13 439.826 189.835 439.601 191.275ZM448.438 190.375H446.908C447.058 188.935 448.303 187.975 450.253 187.975C452.293 187.975 453.433 189.07 453.433 190.675V196H452.248L452.068 194.935C451.558 195.655 450.718 196.225 449.458 196.225C447.748 196.225 446.758 195.265 446.758 193.99C446.758 192.565 447.613 191.755 449.713 191.395L451.993 191.005V190.615C451.993 189.655 451.348 189.115 450.193 189.115C449.083 189.115 448.543 189.595 448.438 190.375ZM451.993 192.13L450.058 192.475C448.663 192.715 448.288 193.15 448.288 193.84C448.288 194.59 448.828 195.01 449.803 195.01C450.898 195.01 451.993 194.2 451.993 193.135V192.13ZM456.895 196H455.455V188.2H456.64L456.835 189.355C457.27 188.455 457.945 187.975 458.815 187.975C459.19 187.975 459.49 188.035 459.67 188.08V189.52C459.385 189.445 459.1 189.385 458.755 189.385C457.765 189.385 456.895 190.12 456.895 192.085V196ZM466.739 196H465.299V185.2H466.739V189.085C467.309 188.35 468.134 187.975 469.019 187.975C470.714 187.975 471.779 189.01 471.779 190.915V196H470.339V190.93C470.339 189.76 469.739 189.205 468.674 189.205C467.609 189.205 466.739 189.955 466.739 191.245V196ZM479.119 193.75H480.679C480.289 195.175 479.059 196.225 477.184 196.225C474.964 196.225 473.359 194.845 473.359 192.1C473.359 189.385 474.949 187.975 477.109 187.975C479.269 187.975 480.769 189.265 480.769 192.415H474.829C474.949 194.215 475.924 195.01 477.229 195.01C478.174 195.01 478.894 194.47 479.119 193.75ZM474.889 191.275H479.299C479.194 189.82 478.339 189.13 477.139 189.13C475.984 189.13 475.114 189.835 474.889 191.275ZM483.936 196H482.496V188.2H483.681L483.876 189.355C484.311 188.455 484.986 187.975 485.856 187.975C486.231 187.975 486.531 188.035 486.711 188.08V189.52C486.426 189.445 486.141 189.385 485.796 189.385C484.806 189.385 483.936 190.12 483.936 192.085V196ZM493.006 193.75H494.566C494.176 195.175 492.946 196.225 491.071 196.225C488.851 196.225 487.246 194.845 487.246 192.1C487.246 189.385 488.836 187.975 490.996 187.975C493.156 187.975 494.656 189.265 494.656 192.415H488.716C488.836 194.215 489.811 195.01 491.116 195.01C492.061 195.01 492.781 194.47 493.006 193.75ZM488.776 191.275H493.186C493.081 189.82 492.226 189.13 491.026 189.13C489.871 189.13 489.001 189.835 488.776 191.275Z" fill="white"/>
<path d="M587.931 28H586.791V20.8L584.907 21.772V20.584L586.803 19.6H587.931V28ZM591.466 26.38H592.738C592.894 26.92 593.35 27.244 594.058 27.244C595.078 27.244 595.834 26.488 595.954 24.016C595.45 24.82 594.634 25.096 593.962 25.096C592.426 25.096 591.346 24.04 591.346 22.276C591.346 20.536 592.558 19.42 594.154 19.42C596.098 19.42 597.106 20.764 597.106 23.464C597.106 27.148 595.678 28.18 594.01 28.18C592.714 28.18 591.742 27.472 591.466 26.38ZM595.846 22.312C595.846 21.064 595.114 20.38 594.154 20.38C593.23 20.38 592.51 21.052 592.51 22.216C592.51 23.476 593.23 24.136 594.166 24.136C595.294 24.136 595.846 23.284 595.846 22.312ZM600.197 28H598.805V26.608H600.197V28ZM600.197 23.152H598.805V21.76H600.197V23.152ZM605.919 28H604.779V20.8L602.895 21.772V20.584L604.791 19.6H605.919V28ZM612.094 28.18C610.39 28.18 609.094 26.788 609.094 23.776C609.094 20.68 610.402 19.42 612.094 19.42C613.786 19.42 615.094 20.68 615.094 23.776C615.094 26.788 613.798 28.18 612.094 28.18ZM612.094 27.22C613.318 27.22 613.918 26.128 613.918 23.776C613.918 21.436 613.318 20.38 612.094 20.38C610.87 20.38 610.27 21.436 610.27 23.776C610.27 26.128 610.87 27.22 612.094 27.22Z" fill="#5B5B5B"/>
<rect x="104" y="134" width="159" height="13" rx="6.5" fill="#D2D2D2"/>
<rect x="104" y="171" width="105" height="13" rx="6.5" fill="#D2D2D2"/>
<rect x="104" y="208" width="48" height="18" rx="9" fill="#227B60"/>
<defs>
<filter id="filter0_dd_1745_7154" x="323" y="74" width="233" height="233" filterUnits="userSpaceOnUse" color-interpolation-filters="sRGB">
<feFlood flood-opacity="0" result="BackgroundImageFix"/>
<feColorMatrix in="SourceAlpha" type="matrix" values="0 0 0 0 0 0 0 0 0 0 0 0 0 0 0 0 0 0 127 0" result="hardAlpha"/>
<feOffset/>
<feGaussianBlur stdDeviation="0.5"/>
<feColorMatrix type="matrix" values="0 0 0 0 0 0 0 0 0 0 0 0 0 0 0 0 0 0 0.14 0"/>
<feBlend mode="normal" in2="BackgroundImageFix" result="effect1_dropShadow_1745_7154"/>
<feColorMatrix in="SourceAlpha" type="matrix" values="0 0 0 0 0 0 0 0 0 0 0 0 0 0 0 0 0 0 127 0" result="hardAlpha"/>
<feOffset dy="8"/>
<feGaussianBlur stdDeviation="8"/>
<feColorMatrix type="matrix" values="0 0 0 0 0 0 0 0 0 0 0 0 0 0 0 0 0 0 0.16 0"/>
<feBlend mode="normal" in2="effect1_dropShadow_1745_7154" result="effect2_dropShadow_1745_7154"/>
<feBlend mode="normal" in="SourceGraphic" in2="effect2_dropShadow_1745_7154" result="shape"/>
</filter>
</defs>
</svg>
