<svg width="37" height="37" viewBox="0 0 37 37" fill="none" xmlns="http://www.w3.org/2000/svg">
<path fill-rule="evenodd" clip-rule="evenodd" d="M20.775 6.05642C24.1117 9.85508 28.783 11.6371 35.0457 11.4171C37.3337 8.68901 37.1944 4.60434 34.635 2.03775C31.9144 -0.682916 27.4997 -0.675582 24.7937 2.03775L20.775 6.05642ZM31.68 14.8271C31.6287 14.8198 31.5993 14.8198 31.5847 14.8198C26.6787 14.5044 22.3007 12.5538 18.9273 9.20243C18.8773 9.15029 18.8231 9.09458 18.7659 9.03583C18.622 8.888 18.4593 8.72085 18.2967 8.54243L0.645333 26.1864C0.44 26.3844 0.278667 26.6338 0.168667 26.8978C0.117333 27.0298 0.0733333 27.1691 0.044 27.3084C0.022 27.4478 0 27.5944 0 27.7411V34.4658C0 35.6758 0.99 36.6658 2.2 36.6658H8.92467C9.07133 36.6658 9.21067 36.6511 9.35733 36.6218C9.36733 36.6195 9.3775 36.6173 9.38779 36.6151C9.44539 36.6025 9.50667 36.5891 9.56266 36.5704C9.90733 36.4678 10.23 36.2771 10.4867 36.0204L31.68 14.8271Z" fill="white" fill-opacity="0.95"/>
</svg>
