<?xml version="1.0" encoding="utf-8"?>
<!-- Generator: Adobe Illustrator 22.0.1, SVG Export Plug-In . SVG Version: 6.00 Build 0)  -->
<svg version="1.1" id="Layer_1" xmlns="http://www.w3.org/2000/svg" xmlns:xlink="http://www.w3.org/1999/xlink" x="0px" y="0px"
	 viewBox="0 0 40 40" style="enable-background:new 0 0 40 40;" xml:space="preserve">
<g>
	<path d="M34.707,33.293l-8.5522-8.5522C27.9263,22.6492,29,19.9493,29,17c0-6.6172-5.3828-12-12-12S5,10.3828,5,17s5.3828,12,12,12
		c2.9492,0,5.6494-1.0739,7.7407-2.8452l8.5522,8.5522C33.4883,34.9023,33.7441,35,34,35s0.5117-0.0977,0.707-0.293
		C35.0977,34.3164,35.0977,33.6836,34.707,33.293z M7,17c0-5.5137,4.4863-10,10-10s10,4.4863,10,10s-4.4863,10-10,10S7,22.5137,7,17
		z"/>
	<path d="M22,16h-4v-4c0-0.5527-0.4473-1-1-1s-1,0.4473-1,1v4h-4c-0.5527,0-1,0.4473-1,1s0.4473,1,1,1h4v4c0,0.5527,0.4473,1,1,1
		s1-0.4473,1-1v-4h4c0.5527,0,1-0.4473,1-1S22.5527,16,22,16z"/>
</g>
</svg>
